<svg id="Livello_1" data-name="Livello 1" xmlns="http://www.w3.org/2000/svg" xmlns:xlink="http://www.w3.org/1999/xlink" viewBox="0 0 213.66 225.25"><defs><style>.cls-1{fill:#f8f8ff;}.cls-2{fill:#bac5f4;}.cls-3{fill:#fff;}.cls-4{fill:#e1e6fb;}.cls-5,.cls-6{fill:none;stroke:#e1e6fb;}.cls-5{stroke-miterlimit:2.93;stroke-width:0.84px;stroke-dasharray:2.46 2.46;}.cls-6{stroke-miterlimit:2.93;stroke-width:0.84px;stroke-dasharray:2.43 2.43;}.cls-7{fill:#b0c0f4;}.cls-8{fill:url(#Sfumatura_senza_nome_5);}.cls-9{fill:url(#Sfumatura_senza_nome_5-2);}.cls-10{fill:url(#Sfumatura_senza_nome_18);}.cls-11{fill:url(#Sfumatura_senza_nome_5-3);}.cls-12{fill:url(#Sfumatura_senza_nome_5-4);}.cls-13{fill:#e9edfb;}.cls-14{fill:#f5f5fc;}.cls-15{fill:url(#Sfumatura_senza_nome_5-5);}.cls-16{fill:#fcfcfc;}.cls-17{fill:#58caea;}.cls-18{fill:url(#Sfumatura_senza_nome_5-6);}.cls-19{fill:url(#Sfumatura_senza_nome_5-7);}.cls-20{fill:url(#Sfumatura_senza_nome_5-8);}.cls-21{fill:url(#Sfumatura_senza_nome_5-9);}.cls-22{fill:url(#Sfumatura_senza_nome_5-10);}</style><linearGradient id="Sfumatura_senza_nome_5" x1="613.75" y1="-981.37" x2="630.14" y2="-982.07" gradientTransform="matrix(0.53, 0.43, 0.43, -0.53, 238.57, -651.42)" gradientUnits="userSpaceOnUse"><stop offset="0" stop-color="#4b45bd"/><stop offset="1" stop-color="#58caea"/></linearGradient><linearGradient id="Sfumatura_senza_nome_5-2" x1="891.46" y1="-1216.06" x2="915.79" y2="-1216.06" gradientTransform="matrix(0.53, 0.43, 0.43, -0.53, 378.44, -897.75)" xlink:href="#Sfumatura_senza_nome_5"/><linearGradient id="Sfumatura_senza_nome_18" x1="1040.77" y1="-1136.2" x2="1052.39" y2="-1136.2" gradientTransform="matrix(0.46, 0.49, 0.5, -0.47, 405.1, -910.16)" gradientUnits="userSpaceOnUse"><stop offset="0" stop-color="#fff"/><stop offset="1" stop-color="#fff" stop-opacity="0"/></linearGradient><linearGradient id="Sfumatura_senza_nome_5-3" x1="648.37" y1="402.33" x2="679.03" y2="402.33" gradientTransform="matrix(0.61, -0.31, -0.31, -0.61, -201.38, 532.29)" xlink:href="#Sfumatura_senza_nome_5"/><linearGradient id="Sfumatura_senza_nome_5-4" x1="648.37" y1="448.91" x2="651.26" y2="448.91" gradientTransform="matrix(0.61, -0.31, -0.31, -0.61, -201.38, 532.29)" xlink:href="#Sfumatura_senza_nome_5"/><linearGradient id="Sfumatura_senza_nome_5-5" x1="2135.4" y1="289.35" x2="2171.36" y2="289.35" gradientTransform="matrix(0.3, -0.04, -0.04, -0.3, -407.09, 351.13)" xlink:href="#Sfumatura_senza_nome_5"/><linearGradient id="Sfumatura_senza_nome_5-6" x1="2247.09" y1="254.52" x2="2266.79" y2="254.52" gradientTransform="matrix(0.3, -0.05, -0.05, -0.3, -571.34, 341.96)" xlink:href="#Sfumatura_senza_nome_5"/><linearGradient id="Sfumatura_senza_nome_5-7" x1="1368.77" y1="717.23" x2="1499.4" y2="717.23" gradientTransform="matrix(0.3, -0.04, -0.04, -0.3, -322.34, 419.02)" xlink:href="#Sfumatura_senza_nome_5"/><linearGradient id="Sfumatura_senza_nome_5-8" x1="1403.09" y1="732.74" x2="1413.7" y2="732.74" gradientTransform="matrix(0.3, -0.04, -0.04, -0.3, -322.34, 419.02)" xlink:href="#Sfumatura_senza_nome_5"/><linearGradient id="Sfumatura_senza_nome_5-9" x1="1403.09" y1="732.57" x2="1413.7" y2="732.57" gradientTransform="matrix(0.3, -0.04, -0.04, -0.3, -322.34, 419.02)" xlink:href="#Sfumatura_senza_nome_5"/><linearGradient id="Sfumatura_senza_nome_5-10" x1="2135.4" y1="236.02" x2="2135.4" y2="236.02" gradientTransform="matrix(0.3, -0.04, -0.04, -0.3, -407.09, 351.13)" xlink:href="#Sfumatura_senza_nome_5"/></defs><g id="bg18-bg"><path class="cls-1" d="M237.91,32.74C214.8,56,203.41,39.82,188.8,62.49c-9.45,14.66-15,34.68-8.87,61.34,16.62,72.4,15.32,65,37.57,79.79s16.08,39,46.36,28.49,67.65,13.71,78.87-25.68-17.86-74.29,3.32-96.05,11.28-89.1-46-91.21C268.12,18,256.62,13.94,237.91,32.74Z" transform="translate(-164.47 -17.98)"/><path class="cls-1" d="M233.28,59.1C207,75,194.07,63.93,177.47,79.44c-10.73,10-17,23.7-10.08,41.93,18.88,49.49,17.41,44.44,42.69,54.54s18.27,26.69,52.69,19.48,76.9,9.37,89.64-17.55-20.29-50.79,3.79-65.67S369,51.25,303.87,49.81C267.62,49,254.55,46.25,233.28,59.1Z" transform="translate(-164.47 -17.98)"/></g><g id="bg18-bulb"><path class="cls-2" d="M313,55.23V51s.42-1.05-1.47-1.89-5.25-4.2-5-9.88A11,11,0,0,1,317.8,29c5.88.42,10.08,5,10.29,11.34s-5.46,8.83-5.46,8.83a1.31,1.31,0,0,0-1.05,1.26v4.83Z" transform="translate(-164.47 -17.98)"/><rect class="cls-2" x="305.2" y="30.86" width="0.42" height="4.2" transform="translate(-51.13 254.72) rotate(-57.46)"/><rect class="cls-2" x="313.39" y="24.57" width="0.42" height="4.2" transform="translate(-163.15 47.91) rotate(-12.02)"/><rect class="cls-2" x="322" y="27.71" width="4.2" height="0.42" transform="translate(-36.61 269.38) rotate(-57.82)"/><rect class="cls-2" x="328.29" y="35.9" width="4.2" height="0.42" transform="translate(-159.42 86.05) rotate(-18.03)"/><rect class="cls-2" x="328.94" y="44.53" width="0.42" height="4.2" transform="translate(-49.02 283.3) rotate(-58.06)"/><rect class="cls-2" x="308.14" y="51.45" width="4.2" height="0.42" transform="translate(-63.3 268.63) rotate(-57.79)"/><rect class="cls-2" x="302.03" y="43.46" width="4.2" height="0.42" transform="translate(-166.44 52.25) rotate(-13.13)"/><path class="cls-2" d="M312.86,55.23h8.83a.73.73,0,0,1,.73.73h0a.74.74,0,0,1-.73.74h-8.83a.74.74,0,0,1-.73-.74h0A.73.73,0,0,1,312.86,55.23Z" transform="translate(-164.47 -17.98)"/><path class="cls-2" d="M313.07,58h8.41a.73.73,0,0,1,.73.73h0a.74.74,0,0,1-.73.74h-8.41a.74.74,0,0,1-.73-.74h0A.73.73,0,0,1,313.07,58Z" transform="translate(-164.47 -17.98)"/><path class="cls-3" d="M313,56.7h8.61a.63.63,0,0,1,.63.63h0a.63.63,0,0,1-.63.63H313a.63.63,0,0,1-.63-.63h0A.63.63,0,0,1,313,56.7Z" transform="translate(-164.47 -17.98)"/><path class="cls-3" d="M313.39,59.43h7.72S321,62,317.38,62,314,60.48,313.39,59.43Z" transform="translate(-164.47 -17.98)"/></g><g id="bg18-message"><path class="cls-4" d="M175,98.4l23.35-8.05a.77.77,0,0,1,1,.48l0,.08,3.48,15.38a.77.77,0,0,1-.5.9l-23.35,8a.77.77,0,0,1-1-.48l0-.08L174.52,99.3A.77.77,0,0,1,175,98.4Z" transform="translate(-164.47 -17.98)"/><path class="cls-3" d="M173.43,99l23.35-8.06a.79.79,0,0,1,1,.48s0,.06,0,.09l3.48,15.37a.78.78,0,0,1-.5.91l-23.35,8.05a.77.77,0,0,1-1-.48l0-.08-3.48-15.38A.77.77,0,0,1,173.43,99Z" transform="translate(-164.47 -17.98)"/><polygon class="cls-2" points="8.68 81.14 21.32 86.71 32.64 72.88 8.68 81.14"/></g><g id="bg18-lights"><circle class="cls-5" cx="30.99" cy="148.79" r="14.1"/><rect class="cls-4" x="28.5" y="161.84" width="4.98" height="1.56" rx="0.78"/><circle class="cls-4" cx="31.07" cy="148.71" r="12.5"/><rect class="cls-4" x="30.56" y="162.89" width="1.01" height="60.11"/><circle class="cls-6" cx="37.78" cy="181.47" r="10.83"/><rect class="cls-4" x="35.87" y="191.5" width="3.83" height="1.2" rx="0.57"/><rect class="cls-4" x="28.65" y="223" width="11.45" height="1.2" rx="0.57"/><rect class="cls-4" x="25.77" y="224.05" width="16.98" height="1.2" rx="0.57"/><circle class="cls-4" cx="37.84" cy="181.42" r="9.6"/><rect class="cls-4" x="37.3" y="162.89" width="1.01" height="60.11"/></g><g id="bg18-chair"><path class="cls-2" d="M296.72,216.82A2.22,2.22,0,0,0,297,220l.23.18c6.9,4.46,30.07,17.59,49.16,6.61,22.68-13.07,32.3-47.73,31.75-51s-11.79-3.9-30.67-3.22,2.36,33.7-19.24,36.79-16-5.81-22.86-.55A57.09,57.09,0,0,0,296.72,216.82Z" transform="translate(-164.47 -17.98)"/><path class="cls-7" d="M309.25,207.17s28.49,7.51,29.31-8.93c1.14-22.91,5.89-21,5.54-6.4s-.14,15.75-6.94,18.64c-5.85,2.49-10.76,2.93-18.63,1.35C312.09,210.53,309.25,207.17,309.25,207.17Z" transform="translate(-164.47 -17.98)"/><rect class="cls-2" x="296.2" y="226.29" width="11.25" height="1.54" transform="translate(-226.75 309.48) rotate(-52.37)"/><circle class="cls-7" cx="133.34" cy="214.43" r="2.15"/><rect class="cls-2" x="311.45" y="232.26" width="11.25" height="1.54" transform="translate(-207.74 373.13) rotate(-60)"/><circle class="cls-7" cx="149.45" cy="220.92" r="2.15"/><rect class="cls-2" x="349.06" y="224.6" width="1.54" height="13.68" transform="translate(-231.59 259.22) rotate(-39.75)"/><circle class="cls-7" cx="190.32" cy="219.72" r="2.15"/><rect class="cls-2" x="332.74" y="219.66" width="1.54" height="13.68" transform="translate(-232.21 247.64) rotate(-39.75)"/><circle class="cls-7" cx="174" cy="214.78" r="2.15"/></g><polygon class="cls-8" points="131.45 144.61 155.32 128.42 149.89 122 128.3 142.04 131.45 144.61"/><polyline class="cls-3" points="149.89 122 154.01 118.79 159.11 124.85 155.32 128.42"/><path class="cls-9" d="M333,122.41s-.2,4.39-6,5.44-6.57,1.68-8.5,8.92l5.1,6.06s5.7,2.78,9.85-1.69C337.84,136.44,336.94,128.82,333,122.41Z" transform="translate(-164.47 -17.98)"/><path class="cls-10" d="M335.87,136.31s-7.88,9.66-15,3.37" transform="translate(-164.47 -17.98)"/><polygon class="cls-11" points="60.22 70.33 88.01 99.06 96.27 94.84 66.32 63.62 60.22 70.33"/><polygon class="cls-3" points="54.44 59 60.22 70.33 66.32 63.62 55.77 57.26 54.44 59"/><polygon class="cls-12" points="54.44 59 55.77 57.26 52.98 56.15 54.44 59"/><path class="cls-13" d="M290.25,101.28s6,14.85,8.05,18c2.58,4,2-5.84,1.29-8.24S294.7,103.9,290.25,101.28Z" transform="translate(-164.47 -17.98)"/><path class="cls-13" d="M284.22,108.88a73.4,73.4,0,0,0,5.58,9.86,48.83,48.83,0,0,0,6,6.52c3.35,3.53.5-5.7-.68-7.93S289.14,110.75,284.22,108.88Z" transform="translate(-164.47 -17.98)"/><path class="cls-13" d="M281.39,116.27a84.19,84.19,0,0,0,6.23,11.11,55.15,55.15,0,0,0,6.64,7.37c3.71,4,.47-6.38-.85-8.9S286.8,118.41,281.39,116.27Z" transform="translate(-164.47 -17.98)"/><path class="cls-13" d="M275.38,128.47a116.73,116.73,0,0,1,10.77,7.22c5.23,4.1,6.16,4.57,7.72,5.08,4.93,1.59-2.47-8.38-4.7-9.84S281,127.85,275.38,128.47Z" transform="translate(-164.47 -17.98)"/><path class="cls-13" d="M295.8,135.71a1.52,1.52,0,0,0-.09-.28c.05.69,1.07,3.81.79,4.5l.52-1.21Z" transform="translate(-164.47 -17.98)"/><path class="cls-13" d="M294.86,140.44s-.1-.17-.09-.13c.05.33,1.1,1.87.83,2.22l.51-.6Z" transform="translate(-164.47 -17.98)"/><path class="cls-13" d="M298.39,141.05s.15-.12.13-.09c-.22.28-1.67,1.31-1.71,1.69,0,.09.06-.66.06-.66Z" transform="translate(-164.47 -17.98)"/><path class="cls-13" d="M250.14,118.6s-6.24,14.84-8.34,18c-2.67,4-2.08-5.85-1.34-8.24S245.53,121.22,250.14,118.6Z" transform="translate(-164.47 -17.98)"/><path class="cls-13" d="M256.39,126.19a71.75,71.75,0,0,1-5.78,9.86,48.39,48.39,0,0,1-6.21,6.52c-3.48,3.53-.52-5.69.71-7.93S251.29,128.06,256.39,126.19Z" transform="translate(-164.47 -17.98)"/><path class="cls-13" d="M259.33,133.58a83.86,83.86,0,0,1-6.47,11.11,55.74,55.74,0,0,1-6.88,7.37c-3.85,4-.49-6.38.88-8.9S253.72,135.73,259.33,133.58Z" transform="translate(-164.47 -17.98)"/><path class="cls-13" d="M265.55,145.78A122.74,122.74,0,0,0,254.39,153c-5.43,4.11-6.38,4.57-8,5.08-5.12,1.6,2.56-8.38,4.87-9.83S259.75,145.16,265.55,145.78Z" transform="translate(-164.47 -17.98)"/><path class="cls-2" d="M294.8,131.08a58.4,58.4,0,0,0,3.71,8.11,37.61,37.61,0,0,0,4.25,5.52c2.39,3,.78-4.43,0-6.25S298.53,132.88,294.8,131.08Z" transform="translate(-164.47 -17.98)"/><path class="cls-2" d="M292.08,136.68a66.25,66.25,0,0,0,4.14,9.14,43.61,43.61,0,0,0,4.7,6.23c2.64,3.38.81-5-.06-7S296.18,138.73,292.08,136.68Z" transform="translate(-164.47 -17.98)"/><path class="cls-2" d="M286.55,145.84a92.52,92.52,0,0,1,7.95,6.39c3.82,3.57,4.52,4,5.7,4.5,3.76,1.59-1.36-6.73-3-8S291,145.73,286.55,145.84Z" transform="translate(-164.47 -17.98)"/><rect class="cls-4" x="74.08" y="44.3" width="68.36" height="117.84" rx="10.13"/><rect class="cls-3" x="77.08" y="48.9" width="62.2" height="109.83" rx="6.71"/><rect class="cls-4" x="90.53" y="46.38" width="34.15" height="5.56" rx="2.78"/><rect class="cls-3" x="100.26" y="46.86" width="15.12" height="2.11" rx="1.05"/><rect class="cls-14" x="82.53" y="62.99" width="52.4" height="15.69" rx="2.77"/><circle class="cls-2" cx="90.52" cy="70.72" r="5.65"/><path class="cls-2" d="M264.76,83.55H294a1.2,1.2,0,0,1,1.2,1.2h0a1.19,1.19,0,0,1-1.2,1.19H264.76a1.19,1.19,0,0,1-1.2-1.19h0A1.2,1.2,0,0,1,264.76,83.55Z" transform="translate(-164.47 -17.98)"/><path class="cls-2" d="M264.76,87.53h22.53a1.2,1.2,0,0,1,1.2,1.2h0a1.2,1.2,0,0,1-1.2,1.2H264.76a1.2,1.2,0,0,1-1.2-1.2h0A1.2,1.2,0,0,1,264.76,87.53Z" transform="translate(-164.47 -17.98)"/><path class="cls-2" d="M264.76,92h5.3a1.2,1.2,0,0,1,1.2,1.2h0a1.19,1.19,0,0,1-1.2,1.19h-5.3a1.19,1.19,0,0,1-1.2-1.19h0A1.2,1.2,0,0,1,264.76,92Z" transform="translate(-164.47 -17.98)"/><rect class="cls-14" x="82.53" y="103.46" width="52.4" height="15.69" rx="2.77"/><circle class="cls-2" cx="90.52" cy="111.19" r="5.65"/><path class="cls-2" d="M264.76,124H294a1.2,1.2,0,0,1,1.2,1.2h0a1.2,1.2,0,0,1-1.2,1.2H264.76a1.2,1.2,0,0,1-1.2-1.2h0A1.2,1.2,0,0,1,264.76,124Z" transform="translate(-164.47 -17.98)"/><path class="cls-2" d="M264.76,128h22.53a1.2,1.2,0,0,1,1.2,1.2h0a1.2,1.2,0,0,1-1.2,1.2H264.76a1.2,1.2,0,0,1-1.2-1.2h0A1.2,1.2,0,0,1,264.76,128Z" transform="translate(-164.47 -17.98)"/><path class="cls-2" d="M264.76,132.42h5.3a1.2,1.2,0,0,1,1.2,1.2h0a1.2,1.2,0,0,1-1.2,1.2h-5.3a1.2,1.2,0,0,1-1.2-1.2h0A1.2,1.2,0,0,1,264.76,132.42Z" transform="translate(-164.47 -17.98)"/><rect class="cls-14" x="82.53" y="122.65" width="52.4" height="15.69" rx="2.77"/><circle class="cls-2" cx="90.52" cy="130.38" r="5.65"/><path class="cls-2" d="M264.76,143.21H294a1.2,1.2,0,0,1,1.2,1.2h0a1.2,1.2,0,0,1-1.2,1.2H264.76a1.2,1.2,0,0,1-1.2-1.2h0A1.2,1.2,0,0,1,264.76,143.21Z" transform="translate(-164.47 -17.98)"/><path class="cls-2" d="M264.76,147.2h22.53a1.19,1.19,0,0,1,1.2,1.19h0a1.2,1.2,0,0,1-1.2,1.2H264.76a1.2,1.2,0,0,1-1.2-1.2h0A1.19,1.19,0,0,1,264.76,147.2Z" transform="translate(-164.47 -17.98)"/><rect class="cls-14" x="70.26" y="84.71" width="52.4" height="15.69" rx="2.77"/><rect class="cls-2" x="67.99" y="82.06" width="52.4" height="15.69" rx="2.77"/><circle class="cls-3" cx="75.97" cy="89.79" r="5.65"/><path class="cls-3" d="M250.21,102.62h29.24a1.2,1.2,0,0,1,1.2,1.2h0a1.2,1.2,0,0,1-1.2,1.2H250.21a1.2,1.2,0,0,1-1.2-1.2h0A1.2,1.2,0,0,1,250.21,102.62Z" transform="translate(-164.47 -17.98)"/><path class="cls-3" d="M250.21,106.6h22.53a1.2,1.2,0,0,1,1.2,1.2h0a1.2,1.2,0,0,1-1.2,1.2H250.21a1.2,1.2,0,0,1-1.2-1.2h0A1.2,1.2,0,0,1,250.21,106.6Z" transform="translate(-164.47 -17.98)"/><path class="cls-3" d="M250.21,111h5.3a1.2,1.2,0,0,1,1.2,1.2h0a1.2,1.2,0,0,1-1.2,1.2h-5.3a1.2,1.2,0,0,1-1.2-1.2h0A1.2,1.2,0,0,1,250.21,111Z" transform="translate(-164.47 -17.98)"/><path class="cls-15" d="M221.91,165.85l-1.53,32.53s7.12-2.23,10.72-1.39l-9.19-31.14" transform="translate(-164.47 -17.98)"/><path class="cls-16" d="M221.91,165.85,231.1,197s21.21-5.49,38-5.15l-9.93-30.7-37.28,4.71" transform="translate(-164.47 -17.98)"/><polygon class="cls-17" points="80.97 161.24 75.77 162.04 74.48 157.94 79.58 157.25 80.97 161.24"/><polygon class="cls-17" points="89.2 159.93 84.01 160.72 82.71 156.62 87.81 155.94 89.2 159.93"/><polygon class="cls-17" points="97 158.95 91.8 159.75 90.5 155.65 95.61 154.97 97 158.95"/><polygon class="cls-17" points="98.78 164.47 93.58 165.26 92.28 161.16 97.38 160.48 98.78 164.47"/><polygon class="cls-17" points="82.81 166.49 77.61 167.28 76.31 163.18 81.41 162.5 82.81 166.49"/><polygon class="cls-17" points="74.77 167.78 69.57 168.58 68.28 164.48 73.38 163.79 74.77 167.78"/><polygon class="cls-17" points="76.81 173.46 71.61 174.25 70.32 170.15 75.42 169.47 76.81 173.46"/><polygon class="cls-17" points="84.8 172.3 79.6 173.1 78.3 169 83.41 168.31 84.8 172.3"/><polygon class="cls-17" points="93.04 171.22 87.84 172.01 86.55 167.91 91.65 167.23 93.04 171.22"/><polygon class="cls-18" points="90.97 165.42 85.77 166.22 84.47 162.12 89.57 161.43 90.97 165.42"/><polygon class="cls-19" points="57.45 147.87 60.04 156.73 97.54 151.75 94.73 143.16 57.45 147.87"/><polygon class="cls-20" points="67.41 144.5 70.25 144.08 71.09 148.03 68.28 148.4 67.41 144.5"/><polygon class="cls-21" points="85.23 142.39 87.69 142.02 88.44 145.69 86.01 146.01 85.23 142.39"/><path class="cls-22" d="M220.38,198.38" transform="translate(-164.47 -17.98)"/></svg>